<?xml version="1.0" encoding="UTF-8"?>
<svg width="120" height="120" version="1.1" viewBox="0 0 120 120" xmlns="http://www.w3.org/2000/svg">
 <g transform="matrix(1.3333 0 0 -1.3333 -154.03 300.98)">
  <g transform="matrix(.51202 0 0 .51202 82.852 92.715)">
   <ellipse transform="matrix(.74907 .037315 -.040131 .74893 70.732 252.87)" cx="101.81" cy="-112.96" rx="102.65" ry="104.68" fill="#1b1b1f" stroke-width=".90536"/>
   <g transform="translate(174.76 183.76)">
    <path d="m0 0c-3.076 2.629-28.307 9.758-49.277 14.705-0.161-16.193 0.828-33.787 2.97-36.851 3.071-2.631 28.315-9.762 49.289-14.713 0.164 16.189-0.826 33.791-2.982 36.859" fill="#fff"/>
   </g>
   <g transform="translate(206.28 141.92)">
    <path d="m0 0c-2.082-0.727-14.33 1.627-28.533 4.975-0.141-13.926-1.137-26.813-2.983-28.518-5.152-1.799-72.668 15.279-77.82 19.688-3.988 5.695-3.988 61.685 8e-3 65.375 2.08 0.72 14.328-1.631 28.535-4.981 0.141 13.928 1.131 26.816 2.98 28.52 5.149 1.795 72.653-15.274 77.813-19.68 4.008-5.717 3.996-61.699 0-65.379m-54.582 110.95c-44.715 0-80.965-36.254-80.965-80.969 0-44.714 36.25-80.964 80.965-80.964 44.723 0 80.969 36.25 80.969 80.964 0 44.715-36.246 80.969-80.969 80.969" fill="#fff"/>
   </g>
  </g>
 </g>
</svg>
